# xmcd
#
# Track frame offsets:
#	150
#	25600
#	37535
#	50081
#	64486
#	78559
#	98169
#	115868
#	134449
#	149574
#	162469
#	176576
#	190839
#	208512
#	218332
#	231866
#	242337
#	256727
#	270792
#	288151
#	317325
#
# Disc length: 4484 seconds
#
# Revision: 1
# Processed by: cddbd v1.5.2PL0 Copyright (c) Steve Scherf et al.
# Submitted via: audiograbber 1.83.01
#
DISCID=1a118215
DTITLE=Various Artist - NEJLEPSI COUNTRY VYBER CD1
DYEAR=2007
DGENRE=Country
TTITLE0=SMES HITU 
TTITLE1=KOCOVNI HERCI
TTITLE2=TO TENKRAT V CTYRICATOM PATOM
TTITLE3=PTACI NARECI
TTITLE4=TISIC MIL
TTITLE5=BALICEK KARET
TTITLE6=ZAVIDIM
TTITLE7=AZ ME ANDELE
TTITLE8=AZ NA VRCHOLKY HOR
TTITLE9=VED ME DAL CESTO MA
TTITLE10=NAKLADAK
TTITLE11=SEVERNI VITR
TTITLE12=CO SE BUDE DIT
TTITLE13=MIDNIGHT FLYER
TTITLE14=JA TU ZEMI ZNAM
TTITLE15=ZVEDNETE KOTVY 
TTITLE16=ZACHRANTE MILENKY 
TTITLE17=NA CESTE 
TTITLE18=RUZE Z TEXASU 
TTITLE19=TAM U NEBESKYCH BRAN 
TTITLE20=Bonus Karaoke verze Zvednete Kotvy
EXTD=
EXTT0=
EXTT1=
EXTT2=
EXTT3=
EXTT4=
EXTT5=
EXTT6=
EXTT7=
EXTT8=
EXTT9=
EXTT10=
EXTT11=
EXTT12=
EXTT13=
EXTT14=
EXTT15=
EXTT16=
EXTT17=
EXTT18=
EXTT19=
EXTT20=
PLAYORDER=
